<?xml version="1.0" standalone="no"?>
<!DOCTYPE svg PUBLIC "-//W3C//DTD SVG 20010904//EN"
 "http://www.w3.org/TR/2001/REC-SVG-20010904/DTD/svg10.dtd">
<svg version="1.0" xmlns="http://www.w3.org/2000/svg"
 width="1200.000000pt" height="1184.000000pt" viewBox="0 0 1200.000000 1184.000000"
 preserveAspectRatio="xMidYMid meet">

<g transform="translate(0.000000,1184.000000) scale(0.100000,-0.100000)"
fill="#000000" stroke="none">
<path d="M8610 11537 l0 -304 -192 -6 c-126 -3 -219 -11 -268 -22 -86 -20
-200 -69 -264 -116 l-45 -31 -59 39 c-33 22 -90 52 -127 67 -146 58 -72 56
-1719 56 -1486 0 -1514 0 -1592 -20 -86 -22 -191 -68 -239 -104 -16 -12 -35
-25 -41 -29 -6 -3 -31 9 -57 27 -62 44 -149 82 -249 109 l-83 22 -1520 0
c-1437 0 -1524 -1 -1598 -18 -123 -29 -228 -87 -317 -176 -86 -85 -120 -137
-159 -244 l-26 -72 -3 -1637 -3 -1638 868 -2 868 -3 3 -392 2 -393 95 0 94 0
3 -612 c3 -607 4 -614 26 -672 12 -33 29 -71 38 -84 9 -13 13 -26 10 -29 -3
-3 -45 -9 -93 -14 -267 -27 -474 -176 -555 -399 l-23 -65 -3 -1010 c-2 -730 0
-1027 8 -1070 10 -48 38 -119 78 -197 2 -5 -219 -8 -490 -8 -548 0 -554 -1
-678 -66 -120 -63 -227 -190 -273 -323 -22 -66 -22 -69 -25 -823 -3 -836 -3
-834 60 -964 49 -101 150 -201 256 -253 47 -22 111 -44 150 -50 49 -8 1457
-11 5177 -9 l5110 3 67 32 c118 55 197 161 218 289 14 83 13 1759 -1 1844 -20
126 -102 234 -217 288 l-57 27 -653 3 c-360 1 -652 6 -650 10 2 4 15 31 31 59
58 111 57 88 57 1173 0 852 -2 1004 -15 1059 -49 204 -230 376 -454 429 l-71
16 0 403 0 403 340 0 340 0 0 -272 c0 -299 8 -366 55 -459 83 -166 225 -271
430 -320 81 -19 113 -20 687 -17 l603 3 80 27 c164 56 291 157 359 287 68 130
66 78 66 1379 l0 1172 -474 0 -474 0 2 133 1 132 -667 3 -668 2 0 -60 0 -60
-727 0 c-687 0 -733 -1 -809 -20 -96 -23 -170 -54 -241 -103 l-53 -36 -57 39
c-73 48 -165 86 -259 105 -103 21 -1175 22 -1274 1 -88 -19 -178 -57 -250
-104 -48 -33 -61 -37 -72 -26 -31 30 -139 87 -213 111 -74 24 -97 27 -297 31
l-218 4 0 104 0 104 2365 0 2365 0 0 1820 0 1820 -670 0 -670 0 0 -303z m1050
-1517 l0 -1530 -703 0 c-599 0 -711 2 -762 15 -126 33 -212 105 -240 199 -23
77 -22 1938 1 2015 19 66 78 132 148 166 96 47 165 55 489 55 l297 0 0 305 0
305 385 0 385 0 0 -1530z m-7602 -567 l-3 -1488 -24 -53 c-35 -76 -115 -146
-198 -172 -63 -19 -91 -20 -779 -20 l-714 0 0 305 0 305 475 0 475 0 0 75 0
75 -297 0 c-324 0 -393 8 -489 55 -29 14 -70 45 -92 69 -76 82 -73 32 -70
1117 l3 964 28 57 c45 91 147 165 259 187 24 5 355 9 736 10 l692 1 -2 -1487z
m1663 1465 c75 -26 122 -54 160 -95 77 -80 74 -56 77 -557 l3 -449 -44 -41
-43 -42 22 -17 c12 -9 31 -36 43 -60 21 -43 21 -53 21 -685 l0 -642 485 0 485
0 0 -315 0 -315 329 0 c302 0 334 -2 395 -20 80 -25 141 -70 181 -135 l30 -48
3 -1124 2 -1123 -380 0 -380 0 0 920 0 920 -90 0 -90 0 0 -920 0 -920 -380 0
-380 0 0 1235 0 1235 -317 0 c-353 0 -400 6 -506 62 -68 37 -120 99 -136 165
-7 27 -11 284 -11 747 l0 706 -90 0 -90 0 0 -700 0 -700 -380 0 -380 0 0 1470
0 1471 708 -4 c621 -2 713 -5 753 -19z m1910 -6 c118 -39 198 -117 218 -213 8
-34 11 -399 11 -1129 l0 -1080 -696 0 c-603 0 -704 2 -758 16 -82 21 -151 60
-192 108 -64 75 -65 85 -62 662 l3 519 29 53 c31 55 64 86 135 121 84 43 155
51 479 51 l302 0 0 150 0 150 -95 0 -95 0 0 -75 0 -75 -380 0 -380 0 0 248 c0
303 6 332 84 408 56 55 125 87 219 103 29 5 291 8 582 7 518 -2 532 -2 596
-24z m1177 -49 c3 -69 12 -88 28 -62 15 26 173 88 271 108 140 29 315 30 402
2 110 -34 200 -113 230 -200 8 -25 11 -336 11 -1127 l0 -1094 -380 0 -380 0 0
915 0 915 -90 0 -90 0 0 -915 0 -915 -380 0 -380 0 0 1225 0 1225 378 -2 377
-3 3 -72z m-3788 -3173 l0 -140 475 0 475 0 0 -305 0 -305 -470 0 -470 0 0
-540 0 -540 95 0 95 0 0 460 0 460 375 0 375 0 0 -647 0 -648 -24 -50 c-39
-86 -106 -133 -233 -166 -71 -18 -114 -19 -588 -19 -282 0 -534 4 -561 9 -134
26 -229 87 -270 175 l-24 51 0 728 0 727 -95 0 -95 0 0 305 0 305 90 0 90 0 0
140 0 140 380 0 380 0 0 -140z m7720 -5 l0 -135 470 0 470 0 0 -305 0 -305
-470 0 -470 0 0 -540 0 -541 93 3 92 3 3 463 2 462 375 0 375 0 0 -647 c-1
-699 0 -687 -55 -758 -33 -45 -85 -78 -167 -107 -63 -23 -65 -23 -623 -23
-559 0 -560 0 -631 23 -86 29 -161 83 -194 142 l-25 45 -5 735 -5 735 -92 3
-93 3 0 304 0 305 95 0 95 0 0 135 0 135 380 0 380 0 0 -135z m-3285 15 c77
-11 172 -52 222 -94 17 -14 43 -50 57 -78 l26 -52 0 -653 0 -653 -470 0 -470
0 0 -155 0 -155 90 0 89 0 3 78 3 77 380 0 380 0 0 -250 c0 -301 -5 -326 -80
-401 -53 -53 -122 -86 -219 -105 -27 -5 -279 -9 -561 -9 -474 0 -517 1 -588
19 -127 33 -194 80 -233 166 l-24 50 0 996 0 995 26 52 c29 58 65 92 133 126
40 21 69 29 176 50 45 9 995 5 1060 -4z m2215 -300 l0 -310 -475 0 -475 0 0
-75 0 -75 475 0 475 0 0 -305 0 -305 -472 -2 -473 -3 -3 -537 -2 -538 -380 0
-380 0 2 1123 3 1122 27 47 c46 78 147 136 271 157 29 5 357 9 730 10 l677 1
0 -310z m-3252 -2452 l3 -138 469 0 470 0 0 -310 0 -310 -470 0 -470 0 0 -535
0 -535 90 0 90 0 2 463 3 462 378 3 377 2 0 -652 c0 -635 -1 -654 -21 -698
-11 -25 -35 -60 -52 -79 -38 -40 -131 -86 -202 -101 -35 -7 -239 -10 -606 -8
-551 3 -554 3 -611 26 -74 30 -132 69 -163 112 -55 75 -55 74 -55 837 l0 703
-95 0 -95 0 2 308 3 307 93 3 92 3 0 133 c0 73 3 136 7 139 4 4 176 6 382 5
l376 -3 3 -137z m-3268 -16 c86 -29 157 -84 189 -147 l26 -49 3 -1113 2 -1113
-687 0 c-743 0 -757 1 -862 54 -59 31 -123 101 -139 154 -17 55 -17 1059 0
1114 16 53 80 123 139 154 95 47 150 54 482 54 l307 0 0 150 0 150 -90 0 -90
0 0 -70 0 -70 -380 0 -380 0 0 263 c0 254 1 263 24 313 38 83 125 142 248 169
50 11 171 13 603 12 528 -2 541 -3 605 -25z m1180 -892 l0 -920 90 0 90 0 0
920 0 920 380 0 380 0 0 -1098 c0 -1218 4 -1149 -66 -1231 -40 -46 -130 -93
-212 -110 -74 -15 -1072 -15 -1144 0 -124 27 -215 89 -254 174 l-24 50 0 1108
0 1107 380 0 380 0 0 -920z m4641 906 c133 -24 220 -81 266 -174 l28 -57 0
-980 c0 -1088 4 -1024 -68 -1103 -49 -52 -113 -87 -199 -107 -93 -22 -1083
-22 -1176 0 -82 19 -148 54 -194 102 -72 75 -68 2 -68 1106 l0 993 26 52 c43
86 145 149 277 171 90 15 1021 12 1108 -3z"/>
<path d="M8710 9705 l0 -615 90 0 90 0 0 615 0 615 -90 0 -90 0 0 -615z"/>
<path d="M1110 9705 l0 -615 90 0 90 0 0 615 0 615 -90 0 -90 0 0 -615z"/>
<path d="M3020 10170 l0 -150 90 0 90 0 0 150 0 150 -90 0 -90 0 0 -150z"/>
<path d="M4917 9404 c-4 -4 -7 -74 -7 -156 l0 -148 95 0 96 0 -3 153 -3 152
-85 3 c-47 1 -89 0 -93 -4z"/>
<path d="M6820 6940 l0 -150 90 0 90 0 0 150 0 150 -90 0 -90 0 0 -150z"/>
<path d="M2430 3275 l0 -155 90 0 90 0 0 155 0 155 -90 0 -90 0 0 -155z"/>
<path d="M8320 3730 l0 -610 90 0 90 0 0 610 0 610 -90 0 -90 0 0 -610z"/>
<path d="M11115 2200 c3 -5 15 -10 26 -10 17 0 19 -7 19 -64 0 -36 5 -68 10
-71 6 -4 10 20 10 64 0 69 1 71 25 71 14 0 25 5 25 10 0 6 -27 10 -61 10 -37
0 -58 -4 -54 -10z"/>
<path d="M11250 2136 c0 -92 18 -111 22 -24 l3 63 24 -62 c13 -35 27 -63 31
-63 5 0 16 24 26 53 25 77 28 78 35 7 l6 -65 1 83 c2 99 -15 111 -42 27 -9
-30 -20 -57 -25 -59 -4 -3 -16 22 -26 54 -14 45 -23 60 -37 60 -16 0 -18 -9
-18 -74z"/>
</g>
</svg>
